<svg width="24" height="24" viewBox="0 0 24 24" fill="none" xmlns="http://www.w3.org/2000/svg">
<path d="M12 1C13.3008 1 14.4141 1.80078 14.8125 3H18C19.6569 3 21 4.34315 21 6V20C21 21.6569 19.6569 23 18 23H6C4.34315 23 3 21.6569 3 20V6C3 4.34315 4.34315 3 6 3H9.1875C9.58594 1.80078 10.6992 1 12 1ZM12 3C11.3984 3 11 3.39844 11 4C11 4.60156 11.3984 5 12 5C12.6016 5 13 4.60156 13 4C13 3.39844 12.6016 3 12 3ZM6 5C5.44772 5 5 5.44772 5 6V20C5 20.5523 5.44772 21 6 21H18C18.5523 21 19 20.5523 19 20V6C19 5.44772 18.5523 5 18 5H17V6C17 6.55228 16.5523 7 16 7H8C7.44772 7 7 6.55228 7 6V5H6ZM15.9453 10.2422C15.9478 10.2397 15.9504 10.2371 15.953 10.2346C16.2593 9.93679 16.7491 9.94368 17.0469 10.25C17.3501 10.5619 17.3466 11.0596 17.039 11.3672L11.7071 16.6991C11.3166 17.0897 10.6834 17.0897 10.2929 16.6991L7.96099 14.3672C7.65336 14.0596 7.64986 13.5619 7.95312 13.25C7.95566 13.2474 7.95821 13.2448 7.96077 13.2422C8.26287 12.9402 8.75265 12.9402 9.05474 13.2422L11 15.1875L15.9453 10.2422Z" fill="black" fill-opacity="0.2"/>
</svg>
