<svg width="20" height="20" viewBox="0 0 20 20" fill="none" xmlns="http://www.w3.org/2000/svg">
<path d="M4.99808 7.0625H6.00192C6.03418 7.58567 6.46871 8 7 8C7.53129 8 7.96582 7.58567 7.99808 7.0625H9.00192C9.03418 7.58567 9.46871 8 10 8C10.5313 8 10.9658 7.58567 10.9981 7.0625H12.0019C12.0342 7.58567 12.4687 8 13 8C13.5313 8 13.9658 7.58567 13.9981 7.0625H15.0019C15.0342 7.58567 15.4687 8 16 8C16.5523 8 17 7.55228 17 7C17 6.93189 16.9932 6.86538 16.9802 6.8011C17.3095 6.50085 17.4075 6.00535 17.189 5.59361L15.5632 2.53111C15.3897 2.2043 15.0499 2 14.6799 2H5.32006C4.95006 2 4.61029 2.2043 4.4368 2.53111L2.81103 5.59361C2.73437 5.73801 2.69429 5.89901 2.69429 6.0625C2.69429 6.35489 2.81978 6.61797 3.01984 6.80083C3.00683 6.86519 3 6.9318 3 7C3 7.55228 3.44772 8 4 8C4.53129 8 4.96582 7.58567 4.99808 7.0625ZM2.73611 1.13262C3.06936 0.440237 3.76983 0 4.53823 0H15.4618C16.2302 0 16.9306 0.440237 17.2639 1.13262L19.9375 6.6875L20 6.84375V7C20 7.87891 19.6094 8.66797 19 9.21875V17C19 18.6569 17.6569 20 16 20H4C2.34315 20 1 18.6569 1 17V9.21875C0.390625 8.66797 0 7.87891 0 7V6.84375L0.0625 6.6875L2.73611 1.13262ZM11 10V18H16C16.5523 18 17 17.5523 17 17V10H11ZM3 10V17C3 17.5523 3.44772 18 4 18H9V10H3ZM8 13C7.44922 13 7 13.4492 7 14C7 14.5508 7.44922 15 8 15V13ZM12 13V15C12.5508 15 13 14.5508 13 14C13 13.4492 12.5508 13 12 13Z" fill="black" fill-opacity="0.2"/>
</svg>
