<svg width="20" height="20" viewBox="0 0 20 20" fill="none" xmlns="http://www.w3.org/2000/svg">
<path d="M10.0001 5C10.0001 3.34314 8.65691 2 7.00006 2C5.3432 2 4.00006 3.34314 4.00006 5C4.00006 6.65686 5.3432 8 7.00006 8C8.65691 8 10.0001 6.65686 10.0001 5ZM12.0001 5C12.0001 7.76143 9.76148 10 7.00006 10C4.23863 10 2.00006 7.76143 2.00006 5C2.00006 2.23858 4.23863 0 7.00006 0C9.76148 0 12.0001 2.23858 12.0001 5ZM19.0001 5.5C19.0001 7.4398 17.4501 9 15.5001 9C13.55 9 12.0001 7.4398 12.0001 5.5C12.0001 3.5602 13.55 2 15.5001 2C17.4501 2 19.0001 3.5602 19.0001 5.5ZM17.0001 5.5C17.0001 4.66183 16.3426 4 15.5001 4C14.6575 4 14.0001 4.66183 14.0001 5.5C14.0001 6.33817 14.6575 7 15.5001 7C16.3426 7 17.0001 6.33817 17.0001 5.5ZM13.9064 16.9283C14.0284 18.6085 12.6454 20 10.9572 20H2.95681C1.26854 20 -0.114524 18.6085 0.00750182 16.9283C0.286783 13.0828 2.26692 11 7.00006 11C11.7239 11 13.6247 13.0499 13.9064 16.9283ZM11.9117 17.0732C11.7017 14.1819 10.6057 13 7.00006 13C3.37266 13 2.20919 14.2238 2.00225 17.0732C1.96665 17.5633 2.40071 18 2.95681 18H10.9572C11.5132 18 11.9473 17.5633 11.9117 17.0732ZM15.5001 17C14.9478 17 14.5001 16.5523 14.5001 16C14.5001 15.4477 14.9478 15 15.5001 15H17.9835C17.9378 14.0137 17.8024 13.3246 17.6056 12.9472C17.1621 12.0602 16.4152 11.5 15.5001 11.5C14.5432 11.5 14.2941 11.6178 13.7901 12.1239C13.7499 12.1643 13.7499 12.1643 13.7072 12.2071C13.3166 12.5976 12.6835 12.5976 12.2929 12.2071C11.9024 11.8166 11.9024 11.1834 12.2929 10.7929C12.3318 10.7539 12.3318 10.7539 12.3729 10.7126C13.2311 9.85085 13.9733 9.5 15.5001 9.5C17.2516 9.5 18.638 10.5398 19.3866 12.0374C19.7373 12.7096 19.9234 13.6563 19.9814 14.9075C19.9832 14.9537 19.9832 14.9537 19.9835 15C19.9835 16.1046 19.0881 17 17.9835 17L15.5001 17Z" fill="black" fill-opacity="0.2"/>
</svg>
