<svg width="24" height="24" viewBox="0 0 24 24" fill="none" xmlns="http://www.w3.org/2000/svg">
<path d="M10 3C9.47656 3 8.94141 3.18359 8.5625 3.5625C8.18359 3.94141 8 4.47656 8 5V6H5C3.34315 6 2 7.34315 2 9V18C2 19.6569 3.34315 21 5 21H19C20.6569 21 22 19.6569 22 18V9C22 7.34315 20.6569 6 19 6H16V5C16 4.47656 15.8164 3.94141 15.4375 3.5625C15.0586 3.18359 14.5234 3 14 3H10ZM10 5H14V6H10V5ZM4 14H20V18C20 18.5523 19.5523 19 19 19H5C4.44772 19 4 18.5523 4 18V14ZM5 8H19C19.5523 8 20 8.44772 20 9V12H4V9C4 8.44772 4.44772 8 5 8ZM12 9C11.4492 9 11 9.44922 11 10C11 10.5508 11.4492 11 12 11C12.5508 11 13 10.5508 13 10C13 9.44922 12.5508 9 12 9Z" fill="black" fill-opacity="0.2"/>
</svg>
