<svg width="24" height="24" viewBox="0 0 24 24" fill="none" xmlns="http://www.w3.org/2000/svg">
<path d="M5.15268 8.23294C5.04723 7.71222 4.99986 7.16713 4.99986 6.5C4.99986 4.29286 7.08427 2 9.49986 2H14.4999C16.9154 2 18.9999 4.29286 18.9999 6.5C18.9999 7.14235 18.9476 7.69628 18.8372 8.23422C19.2632 8.24062 19.6965 8.33825 20.1102 8.53132C21.7019 9.27408 22.3243 11.0872 21.3943 12.9472C21.4123 12.9111 20.753 14.4734 20.4242 15.0891C19.4576 16.8992 18.2283 18 16.4999 18H12.9999V20H15.9999C16.9999 20 17.9999 21 17.9999 22H5.99986C5.99986 21 6.99986 20 7.99986 20H10.9999V18H7.49986C5.77144 18 4.54214 16.8992 3.57551 15.0891C3.24668 14.4734 2.58736 12.9111 2.60543 12.9472C1.67542 11.0872 2.29784 9.27408 3.88947 8.53132C4.30022 8.33963 4.73036 8.24202 5.15268 8.23294ZM7.91272 10.0898C8.02308 10.3125 8.11487 10.5164 8.30694 10.955C8.56697 11.5489 8.68216 11.7956 8.80899 12.0128C8.81545 12.0239 8.82175 12.0345 8.82787 12.0447H15.1719C15.2426 11.9274 15.3274 11.7632 15.427 11.5498C15.499 11.3955 15.5582 11.2623 15.6928 10.955C15.8954 10.4922 15.9864 10.2908 16.0714 10.1286L16.072 10.1271C16.111 10.0297 16.3673 9.39605 16.4334 9.22838C16.5511 8.92998 16.6356 8.69941 16.7055 8.48207C16.9095 7.84803 16.9999 7.27704 16.9999 6.5C16.9999 5.35714 15.7661 4 14.4999 4H9.49986C8.23362 4 6.99986 5.35714 6.99986 6.5C6.99986 7.23199 7.06442 7.72992 7.21431 8.24655C7.28139 8.47777 7.36815 8.72427 7.49664 9.05354C7.56688 9.23357 7.84136 9.91283 7.91272 10.0898ZM18.66 14.147C18.9351 13.6318 19.5803 12.103 19.6054 12.0528C20.0338 11.196 19.8322 10.6086 19.2645 10.3437C18.7218 10.0904 18.1667 10.2755 17.8943 10.9472C17.796 11.1437 17.7133 11.3269 17.5249 11.7572C17.3838 12.0794 17.3205 12.2217 17.2394 12.3956C16.6967 13.5585 16.3479 14.0447 15.4999 14.0447H8.49986C7.83747 14.0447 7.45778 13.6653 7.08176 13.0211C6.90054 12.7107 6.76929 12.4297 6.47484 11.7572C6.28646 11.3269 6.20368 11.1437 6.07138 10.8714C5.83302 10.2755 5.27788 10.0904 4.73524 10.3437C4.16751 10.6086 3.96588 11.196 4.39428 12.0528C4.4194 12.103 5.06458 13.6318 5.33971 14.147C5.99523 15.3745 6.69374 16 7.49986 16H16.4999C17.306 16 18.0045 15.3745 18.66 14.147Z" fill="black" fill-opacity="0.2"/>
</svg>
