<svg width="24" height="24" viewBox="0 0 24 24" fill="none" xmlns="http://www.w3.org/2000/svg">
<path d="M12 2C16.4062 2 20 5.59375 20 10C20 12.3555 18.8086 14.0039 17.7812 15.25C16.7539 16.4961 16 17.3398 16 18.3125V20C16 21.1055 15.1055 22 14 22H13.7188C13.3711 22.5977 12.7383 23 12 23C11.2617 23 10.6289 22.5977 10.2812 22H10C8.89453 22 8 21.1055 8 20V18.3125C8 17.3203 7.24219 16.457 6.21875 15.2188C5.19531 13.9805 4 12.3633 4 10C4 5.59375 7.59375 2 12 2ZM12 4C8.67578 4 6 6.67578 6 10C6 11.707 6.80469 12.793 7.78125 13.9688C8.69531 15.0703 9.85547 16.2852 10 18H14C14.1445 16.2969 15.3047 15.0742 16.2188 13.9688C17.1914 12.7852 18 11.6992 18 10C18 6.67578 15.3242 4 12 4ZM2.75 4.15625C2.87891 4.15625 3.02734 4.16406 3.15625 4.21875C3.66797 4.42969 3.89844 5.01953 3.6875 5.53125C3.47656 6.04297 2.88672 6.30469 2.375 6.09375C1.86328 5.88281 1.63281 5.29297 1.84375 4.78125C2.00391 4.39844 2.35938 4.16016 2.75 4.15625ZM21.3125 4.15625C21.7031 4.16016 22.0898 4.39844 22.25 4.78125C22.4609 5.29297 22.1992 5.88281 21.6875 6.09375C21.1758 6.30469 20.5859 6.04297 20.375 5.53125C20.1641 5.01953 20.4258 4.42969 20.9375 4.21875C21.0664 4.16406 21.1836 4.15625 21.3125 4.15625ZM2 9C2.55469 9 3 9.44531 3 10C3 10.5547 2.55469 11 2 11C1.44531 11 1 10.5547 1 10C1 9.44531 1.44531 9 2 9ZM22 9C22.5508 9 23 9.44922 23 10C23 10.5508 22.5508 11 22 11C21.4492 11 21 10.5508 21 10C21 9.44922 21.4492 9 22 9ZM21.2188 13.8125C21.3477 13.8125 21.4961 13.8516 21.625 13.9062C22.1367 14.1172 22.3672 14.707 22.1562 15.2188C21.9453 15.7305 21.3555 15.9609 20.8438 15.75C20.332 15.5391 20.1016 14.9492 20.3125 14.4375C20.4727 14.0547 20.8281 13.8164 21.2188 13.8125ZM2.78125 13.8438C3.17188 13.8477 3.52734 14.0859 3.6875 14.4688C3.89844 14.9805 3.66797 15.5703 3.15625 15.7812C2.64453 15.9922 2.05469 15.7305 1.84375 15.2188C1.63281 14.707 1.86328 14.1172 2.375 13.9062C2.50391 13.8516 2.65234 13.8438 2.78125 13.8438ZM14 18H13.0132L13 16C13 14.4971 13.5863 12.243 14.4599 11.02L15.0934 10.1331C15.3071 9.83397 15.2732 9.42417 15.0132 9.16421C14.7942 8.94526 14.4392 8.94526 14.2203 9.16421L13.7203 9.66421C12.8347 10.5498 11.3988 10.5498 10.5132 9.66421L10.0132 9.16421C9.79424 8.94526 9.43925 8.94526 9.2203 9.16421C8.96034 9.42417 8.92642 9.83397 9.14011 10.1331L9.77361 11.02C10.6472 12.243 11.0132 14.4971 11.0132 16V18H10.0132V16C10.0132 14.7055 9.71228 12.6546 8.95988 11.6013L8.32638 10.7144C7.82856 10.0174 7.90757 9.06273 8.51319 8.45711C9.12267 7.84763 10.1108 7.84763 10.7203 8.45711L11.2203 8.95711C11.7154 9.4522 12.5181 9.4522 13.0132 8.95711L13.5132 8.45711C14.1227 7.84763 15.1108 7.84763 15.7203 8.45711C16.3259 9.06273 16.4049 10.0174 15.9071 10.7144L15.2736 11.6013C14.5212 12.6546 14 14.7055 14 16V18Z" fill="black" fill-opacity="0.2"/>
</svg>
