<svg width="24" height="24" viewBox="0 0 24 24" fill="none" xmlns="http://www.w3.org/2000/svg">
<path d="M11.0006 16.9649C9.76116 16.8685 8.9468 16.5681 8 16L7.55279 15.8944C7.05881 15.6474 6.85858 15.0468 7.10557 14.5528C7.35256 14.0588 7.95324 13.8586 8 14L8.44721 14.1056C9.82046 14.7922 10.5131 15 12 15C13.9 15 15 14.5417 15 14C15 13.4583 13.9 13 12.019 12.9998C9.17244 13.0538 7 12.1349 7 10C7 8.12792 8.62986 7.226 11.0007 7.03782C11.0002 7.02527 11 7.01266 11 7V6.5C11 5.94772 11.4477 5.5 12 5.5C12.5523 5.5 13 5.94772 13 6.5V7C13 7.01192 12.9998 7.02379 12.9994 7.03561C14.2546 7.13502 15.1402 7.45209 16.4472 8.10557C16.9412 8.35256 17.1414 8.95323 16.8944 9.44721C16.6474 9.94119 16.0468 10.1414 15.5528 9.89443C14.1795 9.2078 13.4869 9 12 9C10.1 9 9 9.45833 9 10C9 10.5571 10.1306 11.0353 12 11C14.9 11 17 11.875 17 14C17 15.8721 15.3701 16.774 12.9993 16.9622C12.9998 16.9747 13 16.9873 13 17V17.5C13 18.0523 12.5523 18.5 12 18.5C11.4477 18.5 11 18.0523 11 17.5V17C11 16.9883 11.0002 16.9766 11.0006 16.9649ZM12 23C5.92487 23 1 18.0751 1 12C1 5.92487 5.92487 1 12 1C18.0751 1 23 5.92487 23 12C23 18.0751 18.0751 23 12 23ZM12 21C16.9706 21 21 16.9706 21 12C21 7.02944 16.9706 3 12 3C7.02944 3 3 7.02944 3 12C3 16.9706 7.02944 21 12 21Z" fill="black" fill-opacity="0.2"/>
</svg>
