<svg width="24" height="24" viewBox="0 0 24 24" fill="none" xmlns="http://www.w3.org/2000/svg">
<path d="M4.90285 2.85308C5.2771 2.31842 5.88868 2 6.54131 2H17.4587C18.1113 2 18.7229 2.31842 19.0972 2.85308L21.6385 6.48352C21.8738 6.81969 22 7.2201 22 7.63044L22 19C22 20.6569 20.6569 22 19 22L5 22C3.34315 22 2 20.6569 2 19V7.63044C2 7.2201 2.12622 6.81969 2.36154 6.48352L4.90285 2.85308ZM7 4C6.68524 4 6.38885 4.14819 6.2 4.4L5 6H11V4H7ZM13 4V6H19L17.8 4.4C17.6111 4.14819 17.3148 4 17 4H13ZM5 8C4.44772 8 4 8.44772 4 9V19C4 19.5523 4.44772 20 5 20H19C19.5523 20 20 19.5523 20 19V9C20 8.44772 19.5523 8 19 8H5ZM9 11C9 10.4477 9.44772 10 10 10H14C14.5523 10 15 10.4477 15 11C15 11.5523 14.5523 12 14 12H10C9.44772 12 9 11.5523 9 11Z" fill="black" fill-opacity="0.2"/>
</svg>
