<svg xmlns="http://www.w3.org/2000/svg" width="40" height="40" viewBox="0 0 40 40">
  <path fill="#885DA9" d="M37.8211197,8.83207668 C37.1157681,6.40684856 35.7191718,4.4911218 33.6736519,3.1358468 C31.0920648,1.4205243 28.1225347,0.815915063 25.5585812,0.445677307 C22.0106618,-0.0638249257 18.7977857,-0.13515496 15.733032,0.224893412 C12.8622511,0.564561277 10.7003485,1.10463253 8.72889035,1.9775796 C4.8635632,3.68950564 2.54295575,6.45779809 1.83407755,10.2043349 C1.48845569,12.0249546 1.25568918,13.6689471 1.12167282,15.2382131 C0.811318083,18.8658659 1.09345875,22.075727 1.98220185,25.0512175 C2.84978396,27.9519806 4.36276306,30.023955 6.60930881,31.3860229 C7.18064321,31.7324846 7.91420894,31.9838384 8.62308715,32.2250028 C9.02513805,32.3608699 9.41660845,32.4933406 9.73754278,32.6393971 C10.0337905,32.7718678 10.0337905,32.7956448 10.030264,33.0334119 C10.0055764,35.095196 10.030264,39.1372441 10.030264,39.1372441 L10.0373179,40 L11.6455197,40 L11.9064994,39.7554391 C12.0793103,39.5991924 16.0645477,35.8900193 17.4858316,34.3954807 L17.6798026,34.1882826 C17.9231496,33.9165483 17.9231496,33.9165483 18.1735488,33.9131519 C20.0921053,33.8757882 22.0529829,33.8044581 23.9997535,33.7025582 C26.3591556,33.5802778 29.0923926,33.359493 31.6669266,32.3269027 C34.0228012,31.37923 35.7438593,29.8745012 36.7771993,27.8568736 C37.8563878,25.7509328 38.4947308,23.4717621 38.7345504,20.886889 C39.1577614,16.3421334 38.8579871,12.3985897 37.8211197,8.83207668 Z M29.3357396,26.5049959 C28.7432442,27.432289 27.8615542,28.0776584 26.8211602,28.4954492 C26.0593804,28.8011507 25.2834936,28.7366136 24.5322943,28.4309129 C18.2440839,25.8664203 13.3101497,21.8277696 10.051425,16.0194487 C9.37781388,14.8238178 8.91228178,13.5194932 8.37621451,12.2559288 C8.26688478,11.9977812 8.27393875,11.6920805 8.22456368,11.4067595 C8.27041131,9.36535501 9.89624759,8.2138816 11.5397165,7.86741995 C12.16748,7.7315528 12.7247073,7.94554377 13.1902394,8.37692218 C14.4810334,9.55896635 15.5002664,10.934621 16.2690992,12.4767127 C16.6041415,13.1526519 16.4524907,13.7504674 15.8811563,14.2531758 C15.761246,14.3584731 15.6378102,14.4535801 15.5073194,14.5486871 C14.2024193,15.4929633 14.0119739,16.2096627 14.706746,17.6328713 C15.8917368,20.054703 17.8596675,21.6817122 20.40246,22.6905256 C21.0725446,22.955467 21.7038345,22.8229963 22.2152143,22.2999073 C22.2857494,22.2319738 22.3633377,22.1640402 22.4127127,22.0825199 C23.4143121,20.4724946 24.8708631,20.6321388 26.2145578,21.5492416 C27.0962478,22.1538508 27.9532503,22.7924264 28.824359,23.407225 C30.1539475,24.3481048 30.143367,25.2312412 29.3357396,26.5049959 Z M20.9949554,10.435309 C20.6987077,10.435309 20.40246,10.459086 20.1097398,10.506639 C19.6159936,10.5847629 19.153988,10.2654755 19.0693458,9.7899405 C18.9882302,9.31780195 19.3197459,8.86944037 19.8134921,8.79131654 C20.201435,8.72677943 20.5999585,8.69620954 20.9949554,8.69620954 C24.9061311,8.69620954 28.0872667,11.7600141 28.0872667,15.5269305 C28.0872667,15.910755 28.0555261,16.2945795 27.9885175,16.6648181 C27.9144558,17.0894027 27.5335659,17.3917069 27.0997744,17.3917069 C27.0504002,17.3917069 27.0010251,17.3883104 26.9481235,17.3781202 C26.4579048,17.2999963 26.1263891,16.8516348 26.2075047,16.3794971 C26.2568789,16.100969 26.2815664,15.815648 26.2815664,15.5269305 C26.2815664,12.7212735 23.9080583,10.435309 20.9949554,10.435309 Z M25.3787163,15.6526074 C25.3787163,16.1315389 24.9731388,16.5221572 24.4758661,16.5221572 C23.9785934,16.5221572 23.573016,16.1315389 23.573016,15.6526074 C23.573016,14.2158121 22.3562846,13.0439582 20.8644656,13.0439582 C20.3671929,13.0439582 19.9616155,12.6533399 19.9616155,12.1744085 C19.9616155,11.695477 20.3671929,11.3048587 20.8644656,11.3048587 C23.3543574,11.3048587 25.3787163,13.2545527 25.3787163,15.6526074 Z M30.5348374,17.5853174 C30.4396147,17.9895223 30.0657779,18.2612566 29.6531474,18.2612566 C29.5861388,18.2612566 29.519131,18.2544637 29.4521224,18.240877 C28.9654293,18.1321833 28.6621285,17.6668376 28.7714583,17.1980964 C28.9019481,16.6444376 28.9689567,16.0703991 28.9689567,15.4929633 C28.9689567,11.2674951 25.3963498,7.8266598 21.0090625,7.8266598 C20.409514,7.8266598 19.8134921,7.89119691 19.2386302,8.01687381 C18.7519371,8.12556752 18.2687715,7.83005626 18.1594417,7.36131504 C18.0465855,6.89257295 18.3534137,6.4272282 18.8401068,6.32193094 C19.5454584,6.16568416 20.2754967,6.08756033 21.0090625,6.08756033 C26.3944227,6.08756033 30.774657,10.3062357 30.774657,15.4929633 C30.774657,16.1994725 30.6935413,16.9025852 30.5348374,17.5853174 Z"/>
</svg>
