<svg xmlns="http://www.w3.org/2000/svg" width="40" height="40" viewBox="0 0 40 40">
  <defs>
    <linearGradient id="mess-telegram-a" x1="50%" x2="50%" y1="0%" y2="99.635%">
      <stop offset="0%" stop-color="#42BCE8"/>
      <stop offset="100%" stop-color="#23A7DC"/>
    </linearGradient>
  </defs>
  <g fill="none" fill-rule="evenodd">
    <circle cx="20" cy="20" r="20" fill="url(#mess-telegram-a)" fill-rule="nonzero"/>
    <path fill="#FFF" fill-rule="nonzero" d="M30.176,10.811 L26.359,30.303 C26.359,30.303 25.825,31.655 24.357,31.006 L15.548,24.166 L12.345,22.598 L6.953,20.76 C6.953,20.76 6.125,20.463 6.045,19.814 C5.965,19.165 6.979,18.814 6.979,18.814 L28.415,10.298 C28.414,10.297 30.176,9.513 30.176,10.811 Z"/>
    <path fill="#D2E5F1" fill-rule="nonzero" d="M14.87,30.083 C14.87,30.083 14.613,30.059 14.292,29.031 C13.972,28.004 12.343,22.597 12.343,22.597 L25.29,14.27 C25.29,14.27 26.037,13.81 26.011,14.27 C26.011,14.27 26.144,14.351 25.744,14.73 C25.344,15.109 15.573,24.003 15.573,24.003"/>
    <path fill="#B5CFE4" fill-rule="nonzero" d="M18.925,26.788 L15.441,30.005 C15.441,30.005 15.169,30.214 14.871,30.083 L15.538,24.107"/>
  </g>
</svg>
