<svg width="24" height="24" viewBox="0 0 24 24" fill="none" xmlns="http://www.w3.org/2000/svg">
<g opacity="0.4">
<path d="M9.74606 15H5.97499C5.54916 15 5.13445 14.8641 4.79122 14.6121C3.90091 13.9583 3.70916 12.7066 4.36294 11.8162L11.6332 1.91572C12.0863 1.29867 12.8519 0.994408 13.605 1.13211C14.6915 1.33079 15.4113 2.37268 15.2126 3.45924L14.1994 9.00002H17.9812C18.419 9.00002 18.8448 9.14371 19.1931 9.40903C20.0718 10.0784 20.2415 11.3333 19.5721 12.2119L12.0467 22.0911C11.5714 22.715 10.7753 23.0036 10.0107 22.8291C8.93381 22.5833 8.26007 21.5111 8.50584 20.4342L9.74606 15ZM5.97499 13H12.2539L10.4557 20.8792L17.9812 11H11.8006L13.2452 3.09949L5.97499 13Z" fill="white"/>
</g>
</svg>
