<svg display="none" xmlns="http://www.w3.org/2000/svg">
    <symbol id="message" viewBox="0 0 24 24">
        <g>
            <path d="M13.3414 3C13.1203 3.62556 13 4.29873 13 5H9.5C5.91015 5 3 7.91015 3 11.5C3 15.0899 5.91015 18 9.5 18H14.6059L14.81 18.0973C15.7629 18.5514 16.6894 19.1352 17.5895 19.8472C17.6663 18.9602 17.7928 18.1193 17.9692 17.3245L18.0504 16.9586L18.3521 16.7362C20.0055 15.5175 21 13.5926 21 11.5C21 11.2211 20.9824 10.9463 20.9483 10.6766C21.628 10.4434 22.2525 10.0915 22.7972 9.64582C22.93 10.2427 23 10.8632 23 11.5C23 14.1014 21.8221 16.5081 19.8485 18.1067C19.7291 18.7112 19.6402 19.3489 19.5821 20.0198C19.5483 20.4097 19.4009 20.7811 19.1581 21.088C18.4728 21.9543 17.215 22.101 16.3487 21.4158C15.6275 20.8453 14.8942 20.3738 14.1485 20H9.5C4.80558 20 1 16.1944 1 11.5C1 6.80558 4.80558 3 9.5 3H13.3414Z" fill="black" fill-opacity="0.2"/>
            <path d="M19 9C21.2091 9 23 7.20914 23 5C23 2.79086 21.2091 1 19 1C16.7909 1 15 2.79086 15 5C15 7.20914 16.7909 9 19 9Z" fill="#00B4F0"/>
        </g>
    </symbol>
    <symbol id="bell" viewBox="0 0 24 24">
        <g>
            <path d="M15.7581 19.4094C15.9165 19.7376 16.0053 20.1058 16.0053 20.4946C16.0053 21.8754 14.886 22.9946 13.5053 22.9946C12.6469 22.9946 11.8895 22.562 11.4394 21.9029L10.7646 22.2924C8.9186 23.3582 6.4979 22.3321 6.28959 20.3798C6.09057 18.7111 5.03745 16.1676 3.12329 12.8093C1.59162 10.1221 2.36346 6.74845 4.81889 4.97653C4.32184 4.56382 4.00532 3.94119 4.00532 3.24464C4.00532 2.002 5.01268 0.99464 6.25532 0.99464C7.37922 0.99464 8.31065 1.81867 8.4784 2.89552C10.0778 2.24931 11.8375 2.34125 13.3252 3.05674C13.1178 3.66467 13.0053 4.31652 13.0053 4.99464C13.0053 5.05677 13.0063 5.11868 13.0081 5.18036C11.7746 4.32122 10.1064 4.19721 8.71949 4.99796L6.33599 6.37407C4.43031 7.47431 3.77119 9.9072 4.86085 11.8189C6.89675 15.3908 8.03728 18.1454 8.2769 20.1552C8.32481 20.6041 9.11141 20.9375 9.7646 20.5604L19.2909 15.0604C19.9518 14.6788 20.0616 13.8293 19.6739 13.5621C18.8086 12.9147 17.8843 11.9326 16.8923 10.612C17.5495 10.8593 18.2616 10.9946 19.0053 10.9946C19.2615 10.9946 19.5139 10.9786 19.7616 10.9474C20.1436 11.3554 20.5032 11.6855 20.8391 11.937C22.4912 13.0717 22.149 15.7196 20.2909 16.7924L15.7581 19.4094Z" fill="black" fill-opacity="0.2"/>
            <path d="M19 9C21.2091 9 23 7.20914 23 5C23 2.79086 21.2091 1 19 1C16.7909 1 15 2.79086 15 5C15 7.20914 16.7909 9 19 9Z" fill="#00B4F0"/>
        </g>
    </symbol>
    <symbol id="fb-icon" viewBox="0 0 60 60">
        <g>
            <path d="M0 30C0 13.4315 13.4315 0 30 0C46.5685 0 60 13.4315 60 30C60 46.5685 46.5685 60 30 60C13.4315 60 0 46.5685 0 30Z" fill="#3B5998"/>
            <path d="M33.1269 47.6393V31.3178H37.6324L38.2295 25.6933H33.1269L33.1346 22.8781C33.1346 21.4112 33.274 20.6251 35.381 20.6251H38.1976V15H33.6915C28.2789 15 26.3738 17.7285 26.3738 22.317V25.6939H23V31.3184H26.3738V47.6393H33.1269Z" fill="white"/>
        </g>
    </symbol>
    <symbol id="vk-icon" viewBox="0 0 60 60">
        <g>
            <path d="M0 30C0 13.4315 13.4315 0 30 0C46.5685 0 60 13.4315 60 30C60 46.5685 46.5685 60 30 60C13.4315 60 0 46.5685 0 30Z" fill="#4C6C91"/>
            <path d="M31.5693 39.8451C31.5693 39.8451 32.1469 39.7821 32.4427 39.4702C32.7134 39.1845 32.704 38.6452 32.704 38.6452C32.704 38.6452 32.668 36.1272 33.8591 35.7554C35.0329 35.3898 36.5402 38.1905 38.1397 39.2674C39.348 40.0817 40.2651 39.9035 40.2651 39.9035L44.5395 39.8451C44.5395 39.8451 46.7745 39.7099 45.7149 37.9846C45.6272 37.8433 45.0967 36.7079 42.5377 34.3758C39.8566 31.9346 40.2166 32.3294 43.4439 28.1061C45.4097 25.5343 46.1954 23.9642 45.9497 23.2928C45.7165 22.6506 44.2703 22.8212 44.2703 22.8212L39.4591 22.8504C39.4591 22.8504 39.1023 22.8027 38.8378 22.9579C38.5795 23.11 38.412 23.4649 38.412 23.4649C38.412 23.4649 37.6514 25.4544 36.6356 27.1474C34.493 30.7178 33.6369 30.9068 33.2863 30.6856C32.4708 30.1678 32.6743 28.6085 32.6743 27.5008C32.6743 24.0395 33.2096 22.5969 31.6335 22.2235C31.1107 22.0991 30.7257 22.0177 29.3875 22.0038C27.6706 21.9869 26.2182 22.01 25.3949 22.4048C24.8471 22.6675 24.4245 23.2544 24.6828 23.2882C25.0005 23.3297 25.7205 23.4787 26.1024 23.9888C26.5954 24.6478 26.5782 26.1258 26.5782 26.1258C26.5782 26.1258 26.8614 30.2001 25.9161 30.7055C25.2681 31.0527 24.3792 30.3445 22.4681 27.1044C21.4899 25.4452 20.7512 23.6108 20.7512 23.6108C20.7512 23.6108 20.6088 23.2682 20.3537 23.0839C20.0453 22.8611 19.6149 22.792 19.6149 22.792L15.0432 22.8212C15.0432 22.8212 14.3561 22.8396 14.1041 23.133C13.8803 23.3927 14.0869 23.9319 14.0869 23.9319C14.0869 23.9319 17.6664 32.1528 21.72 36.2962C25.4372 40.094 29.6567 39.8451 29.6567 39.8451H31.5693Z" fill="white"/>
        </g>
    </symbol>
    <symbol id="odnokl-icon" viewBox="0 0 60 60">
        <g>
            <path d="M0 30C0 13.4315 13.4315 0 30 0C46.5685 0 60 13.4315 60 30C60 46.5685 46.5685 60 30 60C13.4315 60 0 46.5685 0 30Z" fill="#F68634"/>
            <path d="M33.3003 22.7422C33.3003 20.9746 31.8108 19.5371 29.9795 19.5371C28.1499 19.5371 26.659 20.9746 26.659 22.7422C26.659 24.5083 28.1499 25.9463 29.9795 25.9463C31.8108 25.9463 33.3003 24.5083 33.3003 22.7422ZM37.9995 22.7422C37.9995 27.0098 34.4036 30.4814 29.9798 30.4814C25.5567 30.4814 21.9597 27.0098 21.9597 22.7422C21.9597 18.4727 25.5567 15 29.9798 15C34.4036 15 37.9995 18.4727 37.9995 22.7422ZM37.9021 34.939C36.4519 35.8179 34.8775 36.4414 33.2449 36.8003L37.7283 41.1289C38.6467 42.0132 38.6467 43.4502 37.7283 44.3359C36.8108 45.2217 35.3238 45.2217 34.4072 44.3359L29.9993 40.0825L25.595 44.3359C25.1358 44.7783 24.534 44.9995 23.9324 44.9995C23.3316 44.9995 22.7307 44.7783 22.2715 44.3359C21.354 43.4502 21.354 42.0142 22.2705 41.1289L26.7544 36.8003C25.1218 36.4414 23.5474 35.8169 22.0974 34.939C21 34.271 20.6702 32.8716 21.3616 31.8115C22.0513 30.7495 23.5015 30.4302 24.6008 31.0981C27.884 33.0918 32.1135 33.0923 35.3987 31.0981C36.4981 30.4302 37.9475 30.7495 38.6387 31.8115C39.3301 32.8706 38.9995 34.271 37.9021 34.939Z" fill="white"/>
        </g>
    </symbol>
    <symbol id="search-icon" viewBox="0 0 18 18">
        <g>
            <path d="M7.5 13C10.5376 13 13 10.5376 13 7.5C13 4.46243 10.5376 2 7.5 2C4.46243 2 2 4.46243 2 7.5C2 10.5376 4.46243 13 7.5 13ZM13.5003 12.0003L17.7071 16.2929C18.0976 16.6834 18.0976 17.3166 17.7071 17.7071C17.3166 18.0976 16.6834 18.0976 16.2929 17.7071L12.0003 13.5003C10.7468 14.442 9.18855 15 7.5 15C3.35786 15 0 11.6421 0 7.5C0 3.35786 3.35786 0 7.5 0C11.6421 0 15 3.35786 15 7.5C15 9.18855 14.442 10.7468 13.5003 12.0003Z" fill="black" fill-opacity="0.2"/>
        </g>
    </symbol>
    <symbol id="search-icon" viewBox="0 0 18 18">
        <g>
            <path d="M7.5 13C10.5376 13 13 10.5376 13 7.5C13 4.46243 10.5376 2 7.5 2C4.46243 2 2 4.46243 2 7.5C2 10.5376 4.46243 13 7.5 13ZM13.5003 12.0003L17.7071 16.2929C18.0976 16.6834 18.0976 17.3166 17.7071 17.7071C17.3166 18.0976 16.6834 18.0976 16.2929 17.7071L12.0003 13.5003C10.7468 14.442 9.18855 15 7.5 15C3.35786 15 0 11.6421 0 7.5C0 3.35786 3.35786 0 7.5 0C11.6421 0 15 3.35786 15 7.5C15 9.18855 14.442 10.7468 13.5003 12.0003Z" fill="black" fill-opacity="0.2"/>
        </g>
    </symbol>

    <symbol id="community-icon" viewBox="0 0 20 20">
        <g>
            <path d="M10.0001 5C10.0001 3.34314 8.65691 2 7.00006 2C5.3432 2 4.00006 3.34314 4.00006 5C4.00006 6.65686 5.3432 8 7.00006 8C8.65691 8 10.0001 6.65686 10.0001 5ZM12.0001 5C12.0001 7.76143 9.76148 10 7.00006 10C4.23863 10 2.00006 7.76143 2.00006 5C2.00006 2.23858 4.23863 0 7.00006 0C9.76148 0 12.0001 2.23858 12.0001 5ZM19.0001 5.5C19.0001 7.4398 17.4501 9 15.5001 9C13.55 9 12.0001 7.4398 12.0001 5.5C12.0001 3.5602 13.55 2 15.5001 2C17.4501 2 19.0001 3.5602 19.0001 5.5ZM17.0001 5.5C17.0001 4.66183 16.3426 4 15.5001 4C14.6575 4 14.0001 4.66183 14.0001 5.5C14.0001 6.33817 14.6575 7 15.5001 7C16.3426 7 17.0001 6.33817 17.0001 5.5ZM13.9064 16.9283C14.0284 18.6085 12.6454 20 10.9572 20H2.95681C1.26854 20 -0.114524 18.6085 0.00750182 16.9283C0.286783 13.0828 2.26692 11 7.00006 11C11.7239 11 13.6247 13.0499 13.9064 16.9283ZM11.9117 17.0732C11.7017 14.1819 10.6057 13 7.00006 13C3.37266 13 2.20919 14.2238 2.00225 17.0732C1.96665 17.5633 2.40071 18 2.95681 18H10.9572C11.5132 18 11.9473 17.5633 11.9117 17.0732ZM15.5001 17C14.9478 17 14.5001 16.5523 14.5001 16C14.5001 15.4477 14.9478 15 15.5001 15H17.9835C17.9378 14.0137 17.8024 13.3246 17.6056 12.9472C17.1621 12.0602 16.4152 11.5 15.5001 11.5C14.5432 11.5 14.2941 11.6178 13.7901 12.1239C13.7499 12.1643 13.7499 12.1643 13.7072 12.2071C13.3166 12.5976 12.6835 12.5976 12.2929 12.2071C11.9024 11.8166 11.9024 11.1834 12.2929 10.7929C12.3318 10.7539 12.3318 10.7539 12.3729 10.7126C13.2311 9.85085 13.9733 9.5 15.5001 9.5C17.2516 9.5 18.638 10.5398 19.3866 12.0374C19.7373 12.7096 19.9234 13.6563 19.9814 14.9075C19.9832 14.9537 19.9832 14.9537 19.9835 15C19.9835 16.1046 19.0881 17 17.9835 17L15.5001 17Z" />
        </g>
    </symbol>
    <symbol id="commercial-icon" viewBox="0 0 20 20">
        <g>
            <path d="M4.99808 7.0625H6.00192C6.03418 7.58567 6.46871 8 7 8C7.53129 8 7.96582 7.58567 7.99808 7.0625H9.00192C9.03418 7.58567 9.46871 8 10 8C10.5313 8 10.9658 7.58567 10.9981 7.0625H12.0019C12.0342 7.58567 12.4687 8 13 8C13.5313 8 13.9658 7.58567 13.9981 7.0625H15.0019C15.0342 7.58567 15.4687 8 16 8C16.5523 8 17 7.55228 17 7C17 6.93189 16.9932 6.86538 16.9802 6.8011C17.3095 6.50085 17.4075 6.00535 17.189 5.59361L15.5632 2.53111C15.3897 2.2043 15.0499 2 14.6799 2H5.32006C4.95006 2 4.61029 2.2043 4.4368 2.53111L2.81103 5.59361C2.73437 5.73801 2.69429 5.89901 2.69429 6.0625C2.69429 6.35489 2.81978 6.61797 3.01984 6.80083C3.00683 6.86519 3 6.9318 3 7C3 7.55228 3.44772 8 4 8C4.53129 8 4.96582 7.58567 4.99808 7.0625ZM2.73611 1.13262C3.06936 0.440237 3.76983 0 4.53823 0H15.4618C16.2302 0 16.9306 0.440237 17.2639 1.13262L19.9375 6.6875L20 6.84375V7C20 7.87891 19.6094 8.66797 19 9.21875V17C19 18.6569 17.6569 20 16 20H4C2.34315 20 1 18.6569 1 17V9.21875C0.390625 8.66797 0 7.87891 0 7V6.84375L0.0625 6.6875L2.73611 1.13262ZM11 10V18H16C16.5523 18 17 17.5523 17 17V10H11ZM3 10V17C3 17.5523 3.44772 18 4 18H9V10H3ZM8 13C7.44922 13 7 13.4492 7 14C7 14.5508 7.44922 15 8 15V13ZM12 13V15C12.5508 15 13 14.5508 13 14C13 13.4492 12.5508 13 12 13Z" />
        </g>
    </symbol>
    <symbol id="franchises-icon" viewBox="0 0 24 24">
        <g>
            <path d="M10 3C9.47656 3 8.94141 3.18359 8.5625 3.5625C8.18359 3.94141 8 4.47656 8 5V6H5C3.34315 6 2 7.34315 2 9V18C2 19.6569 3.34315 21 5 21H19C20.6569 21 22 19.6569 22 18V9C22 7.34315 20.6569 6 19 6H16V5C16 4.47656 15.8164 3.94141 15.4375 3.5625C15.0586 3.18359 14.5234 3 14 3H10ZM10 5H14V6H10V5ZM4 14H20V18C20 18.5523 19.5523 19 19 19H5C4.44772 19 4 18.5523 4 18V14ZM5 8H19C19.5523 8 20 8.44772 20 9V12H4V9C4 8.44772 4.44772 8 5 8ZM12 9C11.4492 9 11 9.44922 11 10C11 10.5508 11.4492 11 12 11C12.5508 11 13 10.5508 13 10C13 9.44922 12.5508 9 12 9Z" />
        </g>
    </symbol>
    <symbol id="gb-icon" viewBox="0 0 24 24">
        <g>
            <path d="M5.15268 8.23294C5.04723 7.71222 4.99986 7.16713 4.99986 6.5C4.99986 4.29286 7.08427 2 9.49986 2H14.4999C16.9154 2 18.9999 4.29286 18.9999 6.5C18.9999 7.14235 18.9476 7.69628 18.8372 8.23422C19.2632 8.24062 19.6965 8.33825 20.1102 8.53132C21.7019 9.27408 22.3243 11.0872 21.3943 12.9472C21.4123 12.9111 20.753 14.4734 20.4242 15.0891C19.4576 16.8992 18.2283 18 16.4999 18H12.9999V20H15.9999C16.9999 20 17.9999 21 17.9999 22H5.99986C5.99986 21 6.99986 20 7.99986 20H10.9999V18H7.49986C5.77144 18 4.54214 16.8992 3.57551 15.0891C3.24668 14.4734 2.58736 12.9111 2.60543 12.9472C1.67542 11.0872 2.29784 9.27408 3.88947 8.53132C4.30022 8.33963 4.73036 8.24202 5.15268 8.23294ZM7.91272 10.0898C8.02308 10.3125 8.11487 10.5164 8.30694 10.955C8.56697 11.5489 8.68216 11.7956 8.80899 12.0128C8.81545 12.0239 8.82175 12.0345 8.82787 12.0447H15.1719C15.2426 11.9274 15.3274 11.7632 15.427 11.5498C15.499 11.3955 15.5582 11.2623 15.6928 10.955C15.8954 10.4922 15.9864 10.2908 16.0714 10.1286L16.072 10.1271C16.111 10.0297 16.3673 9.39605 16.4334 9.22838C16.5511 8.92998 16.6356 8.69941 16.7055 8.48207C16.9095 7.84803 16.9999 7.27704 16.9999 6.5C16.9999 5.35714 15.7661 4 14.4999 4H9.49986C8.23362 4 6.99986 5.35714 6.99986 6.5C6.99986 7.23199 7.06442 7.72992 7.21431 8.24655C7.28139 8.47777 7.36815 8.72427 7.49664 9.05354C7.56688 9.23357 7.84136 9.91283 7.91272 10.0898ZM18.66 14.147C18.9351 13.6318 19.5803 12.103 19.6054 12.0528C20.0338 11.196 19.8322 10.6086 19.2645 10.3437C18.7218 10.0904 18.1667 10.2755 17.8943 10.9472C17.796 11.1437 17.7133 11.3269 17.5249 11.7572C17.3838 12.0794 17.3205 12.2217 17.2394 12.3956C16.6967 13.5585 16.3479 14.0447 15.4999 14.0447H8.49986C7.83747 14.0447 7.45778 13.6653 7.08176 13.0211C6.90054 12.7107 6.76929 12.4297 6.47484 11.7572C6.28646 11.3269 6.20368 11.1437 6.07138 10.8714C5.83302 10.2755 5.27788 10.0904 4.73524 10.3437C4.16751 10.6086 3.96588 11.196 4.39428 12.0528C4.4194 12.103 5.06458 13.6318 5.33971 14.147C5.99523 15.3745 6.69374 16 7.49986 16H16.4999C17.306 16 18.0045 15.3745 18.66 14.147Z" />
        </g>
    </symbol>
    <symbol id="opt-icon" viewBox="0 0 24 24">
        <g>
            <path d="M4.90285 2.85308C5.2771 2.31842 5.88868 2 6.54131 2H17.4587C18.1113 2 18.7229 2.31842 19.0972 2.85308L21.6385 6.48352C21.8738 6.81969 22 7.2201 22 7.63044L22 19C22 20.6569 20.6569 22 19 22L5 22C3.34315 22 2 20.6569 2 19V7.63044C2 7.2201 2.12622 6.81969 2.36154 6.48352L4.90285 2.85308ZM7 4C6.68524 4 6.38885 4.14819 6.2 4.4L5 6H11V4H7ZM13 4V6H19L17.8 4.4C17.6111 4.14819 17.3148 4 17 4H13ZM5 8C4.44772 8 4 8.44772 4 9V19C4 19.5523 4.44772 20 5 20H19C19.5523 20 20 19.5523 20 19V9C20 8.44772 19.5523 8 19 8H5ZM9 11C9 10.4477 9.44772 10 10 10H14C14.5523 10 15 10.4477 15 11C15 11.5523 14.5523 12 14 12H10C9.44772 12 9 11.5523 9 11Z" />
        </g>
    </symbol>
    <symbol id="invest-icon" viewBox="0 0 24 24">
        <g>
            <path d="M11.0006 16.9649C9.76116 16.8685 8.9468 16.5681 8 16L7.55279 15.8944C7.05881 15.6474 6.85858 15.0468 7.10557 14.5528C7.35256 14.0588 7.95324 13.8586 8 14L8.44721 14.1056C9.82046 14.7922 10.5131 15 12 15C13.9 15 15 14.5417 15 14C15 13.4583 13.9 13 12.019 12.9998C9.17244 13.0538 7 12.1349 7 10C7 8.12792 8.62986 7.226 11.0007 7.03782C11.0002 7.02527 11 7.01266 11 7V6.5C11 5.94772 11.4477 5.5 12 5.5C12.5523 5.5 13 5.94772 13 6.5V7C13 7.01192 12.9998 7.02379 12.9994 7.03561C14.2546 7.13502 15.1402 7.45209 16.4472 8.10557C16.9412 8.35256 17.1414 8.95323 16.8944 9.44721C16.6474 9.94119 16.0468 10.1414 15.5528 9.89443C14.1795 9.2078 13.4869 9 12 9C10.1 9 9 9.45833 9 10C9 10.5571 10.1306 11.0353 12 11C14.9 11 17 11.875 17 14C17 15.8721 15.3701 16.774 12.9993 16.9622C12.9998 16.9747 13 16.9873 13 17V17.5C13 18.0523 12.5523 18.5 12 18.5C11.4477 18.5 11 18.0523 11 17.5V17C11 16.9883 11.0002 16.9766 11.0006 16.9649ZM12 23C5.92487 23 1 18.0751 1 12C1 5.92487 5.92487 1 12 1C18.0751 1 23 5.92487 23 12C23 18.0751 18.0751 23 12 23ZM12 21C16.9706 21 21 16.9706 21 12C21 7.02944 16.9706 3 12 3C7.02944 3 3 7.02944 3 12C3 16.9706 7.02944 21 12 21Z" />
        </g>
    </symbol>
    <symbol id="idea-icon" viewBox="0 0 24 24">
        <g>
            <path d="M12 2C16.4062 2 20 5.59375 20 10C20 12.3555 18.8086 14.0039 17.7812 15.25C16.7539 16.4961 16 17.3398 16 18.3125V20C16 21.1055 15.1055 22 14 22H13.7188C13.3711 22.5977 12.7383 23 12 23C11.2617 23 10.6289 22.5977 10.2812 22H10C8.89453 22 8 21.1055 8 20V18.3125C8 17.3203 7.24219 16.457 6.21875 15.2188C5.19531 13.9805 4 12.3633 4 10C4 5.59375 7.59375 2 12 2ZM12 4C8.67578 4 6 6.67578 6 10C6 11.707 6.80469 12.793 7.78125 13.9688C8.69531 15.0703 9.85547 16.2852 10 18H14C14.1445 16.2969 15.3047 15.0742 16.2188 13.9688C17.1914 12.7852 18 11.6992 18 10C18 6.67578 15.3242 4 12 4ZM2.75 4.15625C2.87891 4.15625 3.02734 4.16406 3.15625 4.21875C3.66797 4.42969 3.89844 5.01953 3.6875 5.53125C3.47656 6.04297 2.88672 6.30469 2.375 6.09375C1.86328 5.88281 1.63281 5.29297 1.84375 4.78125C2.00391 4.39844 2.35938 4.16016 2.75 4.15625ZM21.3125 4.15625C21.7031 4.16016 22.0898 4.39844 22.25 4.78125C22.4609 5.29297 22.1992 5.88281 21.6875 6.09375C21.1758 6.30469 20.5859 6.04297 20.375 5.53125C20.1641 5.01953 20.4258 4.42969 20.9375 4.21875C21.0664 4.16406 21.1836 4.15625 21.3125 4.15625ZM2 9C2.55469 9 3 9.44531 3 10C3 10.5547 2.55469 11 2 11C1.44531 11 1 10.5547 1 10C1 9.44531 1.44531 9 2 9ZM22 9C22.5508 9 23 9.44922 23 10C23 10.5508 22.5508 11 22 11C21.4492 11 21 10.5508 21 10C21 9.44922 21.4492 9 22 9ZM21.2188 13.8125C21.3477 13.8125 21.4961 13.8516 21.625 13.9062C22.1367 14.1172 22.3672 14.707 22.1562 15.2188C21.9453 15.7305 21.3555 15.9609 20.8438 15.75C20.332 15.5391 20.1016 14.9492 20.3125 14.4375C20.4727 14.0547 20.8281 13.8164 21.2188 13.8125ZM2.78125 13.8438C3.17188 13.8477 3.52734 14.0859 3.6875 14.4688C3.89844 14.9805 3.66797 15.5703 3.15625 15.7812C2.64453 15.9922 2.05469 15.7305 1.84375 15.2188C1.63281 14.707 1.86328 14.1172 2.375 13.9062C2.50391 13.8516 2.65234 13.8438 2.78125 13.8438ZM14 18H13.0132L13 16C13 14.4971 13.5863 12.243 14.4599 11.02L15.0934 10.1331C15.3071 9.83397 15.2732 9.42417 15.0132 9.16421C14.7942 8.94526 14.4392 8.94526 14.2203 9.16421L13.7203 9.66421C12.8347 10.5498 11.3988 10.5498 10.5132 9.66421L10.0132 9.16421C9.79424 8.94526 9.43925 8.94526 9.2203 9.16421C8.96034 9.42417 8.92642 9.83397 9.14011 10.1331L9.77361 11.02C10.6472 12.243 11.0132 14.4971 11.0132 16V18H10.0132V16C10.0132 14.7055 9.71228 12.6546 8.95988 11.6013L8.32638 10.7144C7.82856 10.0174 7.90757 9.06273 8.51319 8.45711C9.12267 7.84763 10.1108 7.84763 10.7203 8.45711L11.2203 8.95711C11.7154 9.4522 12.5181 9.4522 13.0132 8.95711L13.5132 8.45711C14.1227 7.84763 15.1108 7.84763 15.7203 8.45711C16.3259 9.06273 16.4049 10.0174 15.9071 10.7144L15.2736 11.6013C14.5212 12.6546 14 14.7055 14 16V18Z" />
        </g>
    </symbol>
    <symbol id="bplan-icon" viewBox="0 0 24 24">
        <g>
            <path d="M12 1C13.3008 1 14.4141 1.80078 14.8125 3H18C19.6569 3 21 4.34315 21 6V20C21 21.6569 19.6569 23 18 23H6C4.34315 23 3 21.6569 3 20V6C3 4.34315 4.34315 3 6 3H9.1875C9.58594 1.80078 10.6992 1 12 1ZM12 3C11.3984 3 11 3.39844 11 4C11 4.60156 11.3984 5 12 5C12.6016 5 13 4.60156 13 4C13 3.39844 12.6016 3 12 3ZM6 5C5.44772 5 5 5.44772 5 6V20C5 20.5523 5.44772 21 6 21H18C18.5523 21 19 20.5523 19 20V6C19 5.44772 18.5523 5 18 5H17V6C17 6.55228 16.5523 7 16 7H8C7.44772 7 7 6.55228 7 6V5H6ZM15.9453 10.2422C15.9478 10.2397 15.9504 10.2371 15.953 10.2346C16.2593 9.93679 16.7491 9.94368 17.0469 10.25C17.3501 10.5619 17.3466 11.0596 17.039 11.3672L11.7071 16.6991C11.3166 17.0897 10.6834 17.0897 10.2929 16.6991L7.96099 14.3672C7.65336 14.0596 7.64986 13.5619 7.95312 13.25C7.95566 13.2474 7.95821 13.2448 7.96077 13.2422C8.26287 12.9402 8.75265 12.9402 9.05474 13.2422L11 15.1875L15.9453 10.2422Z" />
        </g>
    </symbol>
    <symbol id="supplier-icon" viewBox="0 0 24 24">
        <g>
            <path d="M5 4C4.44772 4 4 4.44772 4 5V20H8V22H2V5C2 3.34315 3.34315 2 5 2H13C14.6569 2 16 3.34315 16 5V6L14 7V5C14 4.44772 13.5523 4 13 4H5Z" />
            <path d="M6 6H8V8H6V6Z" />
            <path d="M8 10H6V12H8V10Z" />
            <path d="M6 14H8V16H6V14Z" />
            <path d="M12 10H10V12H12V10Z" />
            <path d="M10 14H12V16H10V14Z" />
            <path d="M12 6H10V8H12V6Z" />
            <path fill-rule="evenodd" clip-rule="evenodd" d="M16.5 15C18.433 15 20 13.433 20 11.5C20 9.567 18.433 8 16.5 8C14.567 8 13 9.567 13 11.5C13 13.433 14.567 15 16.5 15ZM16.5 13C17.3284 13 18 12.3284 18 11.5C18 10.6716 17.3284 10 16.5 10C15.6716 10 15 10.6716 15 11.5C15 12.3284 15.6716 13 16.5 13Z" />
            <path fill-rule="evenodd" clip-rule="evenodd" d="M16.5 15C19.9375 15 23 17 23 19V22H10L10 19C10 17 13.0625 15 16.5 15ZM12 20L12 19C12 19 12.0004 19.0004 12.0015 18.9962C12.0147 18.9469 12.134 18.5025 13.0239 17.9441C13.8924 17.3992 15.1474 17 16.5 17C17.8526 17 19.1076 17.3992 19.9761 17.9441C20.866 18.5025 20.9853 18.9469 20.9985 18.9962C20.9996 19.0004 21 19 21 19V20H12Z" />
        </g>
    </symbol>
    <symbol id="facebook-icon" viewBox="0 0 24 24">
        <g>
            <path fill-rule="evenodd" clip-rule="evenodd" d="M9 3.5H7.5C6.5 3.5 6 4 6 5V6.57366H8.5V10H6V20H2V10H0V6.57366H2V4.5C2 2 3 0 6 0H9V3.5Z" />
        </g>
    </symbol>
    <symbol id="vkontakte-icon" viewBox="0 0 24 24">
        <g>
            <path fill-rule="evenodd" clip-rule="evenodd" d="M21.0846 17.9542L18.417 17.9894C18.417 17.9894 17.8421 18.1066 17.0887 17.5617C16.0898 16.8411 15.1466 14.9663 14.4099 15.2124C13.6677 15.4643 13.69 17.1458 13.69 17.1458C13.69 17.1458 13.6956 17.4445 13.5281 17.6379C13.344 17.8488 12.9812 17.8254 12.9812 17.8254H11.7869C11.7869 17.8254 9.14716 18.0538 6.82552 15.5112C4.29181 12.7401 2.05388 7.26222 2.05388 7.26222C2.05388 7.26222 1.92552 6.91656 2.06504 6.7408C2.22131 6.54746 2.65103 6.54161 2.65103 6.54161L5.50843 6.52989C5.50843 6.52989 5.77632 6.57676 5.97165 6.72322C6.12791 6.84626 6.2172 7.0806 6.2172 7.0806C6.2172 7.0806 6.68042 8.30506 7.29431 9.4182C8.48862 11.5918 9.0467 12.0663 9.44852 11.832C10.0401 11.4922 9.86151 8.76789 9.86151 8.76789C9.86151 8.76789 9.87267 7.77778 9.56572 7.33838C9.32574 6.99272 8.8737 6.89312 8.67836 6.86383C8.51652 6.8404 8.77882 6.44787 9.11925 6.27211C9.63269 6.00847 10.5424 5.99089 11.6139 6.00261C12.451 6.01433 12.691 6.06706 13.0203 6.14908C14.0025 6.401 13.6732 7.36768 13.6732 9.68184C13.6732 10.4259 13.5449 11.4687 14.0527 11.8144C14.2704 11.9667 14.8062 11.8378 16.1456 9.44749C16.7818 8.31092 17.2562 6.981 17.2562 6.981C17.2562 6.981 17.3622 6.74666 17.524 6.6412C17.6859 6.53575 17.9091 6.5709 17.9091 6.5709L20.9172 6.55332C20.9172 6.55332 21.8213 6.43615 21.9664 6.86969C22.1227 7.32081 21.6315 8.3695 20.4038 10.0919C18.3835 12.9158 18.1603 12.6522 19.8345 14.2867C21.4362 15.851 21.7711 16.6126 21.8213 16.7064C22.4854 17.8605 21.0846 17.9542 21.0846 17.9542Z" />
        </g>
    </symbol>
    <symbol id="telegram-icon" viewBox="0 0 24 24">
        <g>
            <path d="M10 15.5L18.3635 7.41939C18.7378 7.08274 18.2818 6.91858 17.7849 7.22393L7.2597 13.9533L2.71339 12.5153C1.73159 12.2106 1.72454 11.5269 2.93382 11.0353L20.6497 4.11246C21.4589 3.74018 22.2398 4.30941 21.931 5.56445L18.9139 19.9726C18.7032 20.9965 18.0928 21.2414 17.247 20.7684L13.1 17.7536L11.0909 19.5097C10.7865 19.7758 10.5455 20 10 20V15.5Z" fill="white"/>
        </g>
    </symbol>
    <symbol id="insta-icon" viewBox="0 0 24 24">
        <g>
            <path d="M8 3C5.23828 3 3 5.23828 3 8V16C3 18.7617 5.23828 21 8 21H16C18.7617 21 21 18.7617 21 16V8C21 5.23828 18.7617 3 16 3H8ZM18 5C18.5508 5 19 5.44922 19 6C19 6.55078 18.5508 7 18 7C17.4492 7 17 6.55078 17 6C17 5.44922 17.4492 5 18 5ZM12 7C14.7617 7 17 9.23828 17 12C17 14.7617 14.7617 17 12 17C9.23828 17 7 14.7617 7 12C7 9.23828 9.23828 7 12 7ZM12 9C10.3438 9 9 10.3438 9 12C9 13.6562 10.3438 15 12 15C13.6562 15 15 13.6562 15 12C15 10.3438 13.6562 9 12 9Z" />
        </g>
    </symbol>
    <symbol id="youtube-icon" viewBox="0 0 24 24">
        <g>
            <path d="M12.0446 4.5C8.81021 4.5 4.61225 4.76272 4.61225 4.76272C3.12859 4.99581 2 6.18717 2 7.63604V11.9993V16.3625C2.00297 17.7934 3.109 19.009 4.60923 19.2316C4.61225 19.2359 8.81021 19.5 12.0446 19.5C15.2789 19.5 19.4769 19.2359 19.4769 19.2359C20.9803 19.0123 21.9984 17.7942 22 16.3632V12V7.63533C21.9978 6.20536 20.9807 4.98971 19.4799 4.76698C19.4769 4.76272 15.2789 4.5 12.0446 4.5ZM10 8.5L16 12L10 15.5V8.5Z" />
        </g>
    </symbol>
    <symbol id="odnoklasniki-icon" viewBox="0 0 24 24">
        <g>
            <path d="M12 5C13.1029 5 14 5.89796 14 7.00194C14 8.10204 13.1029 9 12 9C10.8971 9 10 8.10204 10 7.00194C10 5.89796 10.8971 5 12 5ZM12.002 12C14.7608 12 17 9.76084 17 7.00195C17 4.24306 14.7608 2 12.002 2C9.24306 2 7 4.24306 7 7.00195C7 9.75694 9.24306 12 12.002 12ZM14.1648 16.2431C15.2526 15.9941 16.3018 15.5573 17.2692 14.937C18.0002 14.4697 18.2194 13.4869 17.7594 12.7443C17.2993 12.0018 16.3319 11.7746 15.6009 12.2464C13.4081 13.6441 10.5917 13.6441 8.4032 12.2464C7.66794 11.7746 6.70051 12.0018 6.24044 12.7443C5.78037 13.4869 5.99966 14.4697 6.73491 14.937C7.69804 15.5573 8.75147 15.9941 9.8393 16.2431L6.8467 19.2831C6.23614 19.9034 6.23614 20.9124 6.851 21.5326C7.15628 21.8428 7.55615 22 7.95603 22C8.3559 22 8.76007 21.8428 9.06535 21.5326L12.0021 18.5493L14.9431 21.5326C15.5536 22.1529 16.5426 22.1529 17.1574 21.5326C17.768 20.9124 17.768 19.9034 17.1574 19.2831L14.1648 16.2431Z" />
        </g>
    </symbol>
    <symbol id="iphone-icon" viewBox="0 0 24 24">
        <g>
            <path fill-rule="evenodd" clip-rule="evenodd" d="M16.3077 1H7.69231C6.20615 1 5 2.12 5 3.5V20.5C5 21.88 6.20615 23 7.69231 23H16.3077C17.7938 23 19 21.88 19 20.5V3.5C19 2.12 17.7938 1 16.3077 1ZM12 22C11.17 22 10.5 21.33 10.5 20.5C10.5 19.67 11.17 19 12 19C12.83 19 13.5 19.67 13.5 20.5C13.5 21.33 12.83 22 12 22ZM17 18H7V4H17V18Z" />
        </g>
    </symbol>
    <symbol id="support" viewBox="0 0 24 24">
        <g>
            <path d="M15.589 5.335c-4.359 0-9.589 3.487-9.589 9.589v4.359c0 1.322 0.579 2.264 1.17 2.78 0.36 0.315 0.511 0.32 0.753 0.415 0.317 0.819 2.342 5.522 7.667 5.522 0.029 0 0.057-0.003 0.087-0.003 0.001 0 0.002 0 0.003 0s0.002 0 0.003 0v0c1.997-0.023 3.589-0.756 4.808-1.74h-4.902c-4.65 0-6.147-4.635-6.147-4.635l-0.151-0.454-0.465-0.116c0 0-0.228-0.054-0.509-0.3s-0.574-0.612-0.574-1.469v-0.872h0.872c0-6.103 8.718-1.743 11.333-7.846 0 0 2.615 2.406 2.615 7.846v2.615h0.713c-0.357 1.018-1.311 1.743-2.457 1.743h-3.567c-0.18-0.507-0.66-0.872-1.228-0.872h-0.872c-0.722 0-1.308 0.586-1.308 1.308s0.586 1.308 1.308 1.308h0.872c0.078 0 0.154-0.011 0.228-0.024 0.060 0.016 0.131 0.024 0.203 0.024 0.002 0 0.003 0 0.006 0h4.359c2.172 0 3.981-1.613 4.303-3.698 0.55-0.293 0.928-0.866 0.928-1.532v-0.872c0-0.644-0.352-1.2-0.872-1.501v-1.985c0-3.487-1.743-7.846-5.231-7.846 0 0-0.872-1.743-4.359-1.743v0.002z"></path>
        </g>
    </symbol>

    <symbol id="circle-download" viewBox="0 0 50 50">
        <g>
            <path fill-rule="evenodd" clip-rule="evenodd" d="M25 15C25.5523 15 26 15.4477 26 16V25.5858L29.2929 22.2929C29.6834 21.9024 30.3166 21.9024 30.7071 22.2929C31.0976 22.6834 31.0976 23.3166 30.7071 23.7071L25.7071 28.7071C25.3166 29.0976 24.6834 29.0976 24.2929 28.7071L19.2929 23.7071C18.9024 23.3166 18.9024 22.6834 19.2929 22.2929C19.6834 21.9024 20.3166 21.9024 20.7071 22.2929L24 25.5858V16C24 15.4477 24.4477 15 25 15ZM16 25C16.5523 25 17 25.4477 17 26V30C17 31.6569 18.3431 33 20 33H30C31.6569 33 33 31.6569 33 30V26C33 25.4477 33.4477 25 34 25C34.5523 25 35 25.4477 35 26V30C35 32.7614 32.7614 35 30 35H20C17.2386 35 15 32.7614 15 30V26C15 25.4477 15.4477 25 16 25Z" fill="black" fill-opacity="0.2"/>
            <path d="M25 49C11.7452 49 1 38.2548 1 25H-1C-1 39.3594 10.6406 51 25 51V49ZM49 25C49 38.2548 38.2548 49 25 49V51C39.3594 51 51 39.3594 51 25H49ZM25 1C38.2548 1 49 11.7452 49 25H51C51 10.6406 39.3594 -1 25 -1V1ZM25 -1C10.6406 -1 -1 10.6406 -1 25H1C1 11.7452 11.7452 1 25 1V-1Z" fill="black" fill-opacity="0.2"/>
        </g>>
    </symbol>
    <symbol id="arrow-icon" viewBox="0 0 8 14">
        <g>
            <path d="M5.24264 6.99999L0.292893 2.05025C-0.0976309 1.65972 -0.0976309 1.02656 0.292893 0.636033C0.683418 0.245508 1.31658 0.245508 1.70711 0.636033L7.36396 6.29289C7.75448 6.68341 7.75448 7.31658 7.36396 7.7071L1.70711 13.364C1.31658 13.7545 0.683418 13.7545 0.292893 13.364C-0.0976309 12.9734 -0.0976309 12.3403 0.292893 11.9497L5.24264 6.99999Z" fill="black" fill-opacity="0.2"/>
        </g>>
    </symbol>
    <symbol id="logo-icon" viewBox="0 0 24 24">
        <g>
            <path fill-rule="evenodd" clip-rule="evenodd" d="M7.98872 0H16.0113V7.98867H7.98872V16.0113H0V7.98867V0H7.98872Z" fill="#FA961E"/>
            <path fill-rule="evenodd" clip-rule="evenodd" d="M16.0117 0H24.0004V7.98867V16.0113H16.0117V7.98867V0Z" fill="#FFBE0A"/>
            <path d="M7.98872 16.0114H0V24H7.98872V16.0114Z" fill="#00B4F0"/>
            <path fill-rule="evenodd" clip-rule="evenodd" d="M7.98828 7.98865H16.0108V16.0113H23.9996V24H16.0108H7.98828V16.0113V7.98865Z" fill="#1EA01E"/>
        </g>>
    </symbol>
    <symbol id="light-icon" viewBox="0 0 24 24">
        <g>
            <path d="M9.74606 15H5.97499C5.54916 15 5.13445 14.8641 4.79122 14.6121C3.90091 13.9583 3.70916 12.7066 4.36294 11.8162L11.6332 1.91572C12.0863 1.29867 12.8519 0.994408 13.605 1.13211C14.6915 1.33079 15.4113 2.37268 15.2126 3.45924L14.1994 9.00002H17.9812C18.419 9.00002 18.8448 9.14371 19.1931 9.40903C20.0718 10.0784 20.2415 11.3333 19.5721 12.2119L12.0467 22.0911C11.5714 22.715 10.7753 23.0036 10.0107 22.8291C8.93381 22.5833 8.26007 21.5111 8.50584 20.4342L9.74606 15ZM5.97499 13H12.2539L10.4557 20.8792L17.9812 11H11.8006L13.2452 3.09949L5.97499 13Z" />
        </g>>
    </symbol>
  <symbol id="arrow-bottom-icon" viewBox="0 0 14 8">
    <g>
      <path d="M7.00012 5.24264L11.9499 0.292893C12.3404 -0.0976309 12.9736 -0.0976309 13.3641 0.292893C13.7546 0.683418 13.7546 1.31658 13.3641 1.70711L7.70722 7.36396C7.3167 7.75448 6.68353 7.75448 6.29301 7.36396L0.636155 1.70711C0.24563 1.31658 0.24563 0.683418 0.636155 0.292893C1.02668 -0.0976309 1.65984 -0.0976309 2.05037 0.292893L7.00012 5.24264Z" />
    </g>>
  </symbol>
</svg>
