<svg width="24" height="24" viewBox="0 0 24 24" fill="none" xmlns="http://www.w3.org/2000/svg">
<g opacity="0.4">
<path d="M8 3C5.23828 3 3 5.23828 3 8V16C3 18.7617 5.23828 21 8 21H16C18.7617 21 21 18.7617 21 16V8C21 5.23828 18.7617 3 16 3H8ZM18 5C18.5508 5 19 5.44922 19 6C19 6.55078 18.5508 7 18 7C17.4492 7 17 6.55078 17 6C17 5.44922 17.4492 5 18 5ZM12 7C14.7617 7 17 9.23828 17 12C17 14.7617 14.7617 17 12 17C9.23828 17 7 14.7617 7 12C7 9.23828 9.23828 7 12 7ZM12 9C10.3438 9 9 10.3438 9 12C9 13.6562 10.3438 15 12 15C13.6562 15 15 13.6562 15 12C15 10.3438 13.6562 9 12 9Z" fill="white"/>
</g>
</svg>
