<svg width="24" height="24" viewBox="0 0 24 24" fill="none" xmlns="http://www.w3.org/2000/svg">
<g opacity="0.4">
<path d="M12 5C13.1029 5 14 5.89796 14 7.00194C14 8.10204 13.1029 9 12 9C10.8971 9 10 8.10204 10 7.00194C10 5.89796 10.8971 5 12 5ZM12.002 12C14.7608 12 17 9.76084 17 7.00195C17 4.24306 14.7608 2 12.002 2C9.24306 2 7 4.24306 7 7.00195C7 9.75694 9.24306 12 12.002 12ZM14.1648 16.2431C15.2526 15.9941 16.3018 15.5573 17.2692 14.937C18.0002 14.4697 18.2194 13.4869 17.7594 12.7443C17.2993 12.0018 16.3319 11.7746 15.6009 12.2464C13.4081 13.6441 10.5917 13.6441 8.4032 12.2464C7.66794 11.7746 6.70051 12.0018 6.24044 12.7443C5.78037 13.4869 5.99966 14.4697 6.73491 14.937C7.69804 15.5573 8.75147 15.9941 9.8393 16.2431L6.8467 19.2831C6.23614 19.9034 6.23614 20.9124 6.851 21.5326C7.15628 21.8428 7.55615 22 7.95603 22C8.3559 22 8.76007 21.8428 9.06535 21.5326L12.0021 18.5493L14.9431 21.5326C15.5536 22.1529 16.5426 22.1529 17.1574 21.5326C17.768 20.9124 17.768 19.9034 17.1574 19.2831L14.1648 16.2431Z" fill="white"/>
</g>
</svg>
