<!-- Generated by IcoMoon.io -->
<svg version="1.1" xmlns="http://www.w3.org/2000/svg" width="32" height="32" viewBox="0 0 32 32">
<title>support</title>
<path d="M15.589 5.335c-4.359 0-9.589 3.487-9.589 9.589v4.359c0 1.322 0.579 2.264 1.17 2.78 0.36 0.315 0.511 0.32 0.753 0.415 0.317 0.819 2.342 5.522 7.667 5.522 0.029 0 0.057-0.003 0.087-0.003 0.001 0 0.002 0 0.003 0s0.002 0 0.003 0v0c1.997-0.023 3.589-0.756 4.808-1.74h-4.902c-4.65 0-6.147-4.635-6.147-4.635l-0.151-0.454-0.465-0.116c0 0-0.228-0.054-0.509-0.3s-0.574-0.612-0.574-1.469v-0.872h0.872c0-6.103 8.718-1.743 11.333-7.846 0 0 2.615 2.406 2.615 7.846v2.615h0.713c-0.357 1.018-1.311 1.743-2.457 1.743h-3.567c-0.18-0.507-0.66-0.872-1.228-0.872h-0.872c-0.722 0-1.308 0.586-1.308 1.308s0.586 1.308 1.308 1.308h0.872c0.078 0 0.154-0.011 0.228-0.024 0.060 0.016 0.131 0.024 0.203 0.024 0.002 0 0.003 0 0.006 0h4.359c2.172 0 3.981-1.613 4.303-3.698 0.55-0.293 0.928-0.866 0.928-1.532v-0.872c0-0.644-0.352-1.2-0.872-1.501v-1.985c0-3.487-1.743-7.846-5.231-7.846 0 0-0.872-1.743-4.359-1.743v0.002z"></path>
</svg>
