<svg width="24" height="24" viewBox="0 0 24 24" fill="none" xmlns="http://www.w3.org/2000/svg">
<g opacity="0.4">
<path fill-rule="evenodd" clip-rule="evenodd" d="M21.0846 17.9542L18.417 17.9894C18.417 17.9894 17.8421 18.1066 17.0887 17.5617C16.0898 16.8411 15.1466 14.9663 14.4099 15.2124C13.6677 15.4643 13.69 17.1458 13.69 17.1458C13.69 17.1458 13.6956 17.4445 13.5281 17.6379C13.344 17.8488 12.9812 17.8254 12.9812 17.8254H11.7869C11.7869 17.8254 9.14716 18.0538 6.82552 15.5112C4.29181 12.7401 2.05388 7.26222 2.05388 7.26222C2.05388 7.26222 1.92552 6.91656 2.06504 6.7408C2.22131 6.54746 2.65103 6.54161 2.65103 6.54161L5.50843 6.52989C5.50843 6.52989 5.77632 6.57676 5.97165 6.72322C6.12791 6.84626 6.2172 7.0806 6.2172 7.0806C6.2172 7.0806 6.68042 8.30506 7.29431 9.4182C8.48862 11.5918 9.0467 12.0663 9.44852 11.832C10.0401 11.4922 9.86151 8.76789 9.86151 8.76789C9.86151 8.76789 9.87267 7.77778 9.56572 7.33838C9.32574 6.99272 8.8737 6.89312 8.67836 6.86383C8.51652 6.8404 8.77882 6.44787 9.11925 6.27211C9.63269 6.00847 10.5424 5.99089 11.6139 6.00261C12.451 6.01433 12.691 6.06706 13.0203 6.14908C14.0025 6.401 13.6732 7.36768 13.6732 9.68184C13.6732 10.4259 13.5449 11.4687 14.0527 11.8144C14.2704 11.9667 14.8062 11.8378 16.1456 9.44749C16.7818 8.31092 17.2562 6.981 17.2562 6.981C17.2562 6.981 17.3622 6.74666 17.524 6.6412C17.6859 6.53575 17.9091 6.5709 17.9091 6.5709L20.9172 6.55332C20.9172 6.55332 21.8213 6.43615 21.9664 6.86969C22.1227 7.32081 21.6315 8.3695 20.4038 10.0919C18.3835 12.9158 18.1603 12.6522 19.8345 14.2867C21.4362 15.851 21.7711 16.6126 21.8213 16.7064C22.4854 17.8605 21.0846 17.9542 21.0846 17.9542Z" fill="white"/>
</g>
</svg>
