<svg width="24" height="24" viewBox="0 0 24 24" fill="none" xmlns="http://www.w3.org/2000/svg">
<g opacity="0.4">
<path d="M12.0446 4.5C8.81021 4.5 4.61225 4.76272 4.61225 4.76272C3.12859 4.99581 2 6.18717 2 7.63604V11.9993V16.3625C2.00297 17.7934 3.109 19.009 4.60923 19.2316C4.61225 19.2359 8.81021 19.5 12.0446 19.5C15.2789 19.5 19.4769 19.2359 19.4769 19.2359C20.9803 19.0123 21.9984 17.7942 22 16.3632V12V7.63533C21.9978 6.20536 20.9807 4.98971 19.4799 4.76698C19.4769 4.76272 15.2789 4.5 12.0446 4.5ZM10 8.5L16 12L10 15.5V8.5Z" fill="white"/>
</g>
</svg>
