<svg xmlns="http://www.w3.org/2000/svg" width="40" height="40" viewBox="0 0 40 40">
  <g fill="none" fill-rule="evenodd">
    <path fill="#FFF" d="M10.9466851,36.6690506 L11.1061964,36.7540343 C13.8346382,38.2076808 16.9062488,38.972656 20.015625,38.972656 C30.4785686,38.972656 38.9961947,30.4573878 39.0000001,19.9918126 C39.0038056,14.9225785 37.0299652,10.15504 33.4431341,6.56820974 C29.8586504,2.97992016 25.0918533,1.00380802 20.015625,1 C9.54936457,1 1.03114953,9.51467897 1.027344,19.980469 C1.027344,23.2410138 1.86790594,26.4576291 3.45935086,29.2902479 L3.55347876,29.4577865 L3.5111688,29.6452408 L1.48273911,38.6299765 L10.9466851,36.6690506 Z"/>
    <path fill="#CFD8DC" fill-rule="nonzero" d="M10.9466851,36.6690506 L11.1061964,36.7540343 C13.8346382,38.2076808 16.9062488,38.972656 20.015625,38.972656 C30.4785686,38.972656 38.9961947,30.4573878 39.0000001,19.9918126 C39.0038056,14.9225785 37.0299652,10.15504 33.4431341,6.56820974 C29.8586504,2.97992016 25.0918533,1.00380802 20.015625,1 C9.54936457,1 1.03114953,9.51467897 1.027344,19.980469 C1.027344,23.2410138 1.86790594,26.4576291 3.45935086,29.2902479 L3.55347876,29.4577865 L3.5111688,29.6452408 L1.48273911,38.6299765 L10.9466851,36.6690506 Z M1.7409356,39.5956624 C1.65389046,39.6194023 1.56959877,39.632813 1.480469,39.632813 C1.21749504,39.632813 0.969062018,39.5277839 0.766050141,39.3324483 C0.51829784,39.0769542 0.42416275,38.7111109 0.512269196,38.3899152 L2.49370723,29.6111521 C0.878983498,26.670251 0.0273440006,23.3478279 0.0273440331,19.9802872 C0.0313503678,8.96216109 8.99723336,-1.49880108e-15 20.0160001,1.40677283e-07 C25.3576191,0.00400710051 30.378661,2.08551833 34.1504283,5.86129056 C37.9247396,9.63560078 40.0040047,14.657778 40,19.9923698 C39.9959939,31.0098747 31.0307307,39.972656 20.015625,39.972656 C16.8033936,39.972656 13.6297098,39.1971459 10.7967648,37.7212954 L1.7409356,39.5956624 Z"/>
    <path fill="#40C351" fill-rule="nonzero" d="M31.175781,8.832031 C28.195313,5.851563 24.234375,4.207031 20.019531,4.207031 C11.316406,4.207031 4.234375,11.28125 4.230469,19.980469 C4.230469,22.960938 5.066406,25.863281 6.644531,28.375 L7.019531,28.972656 L5.425781,34.792969 L11.398438,33.226563 L11.976563,33.570313 C14.398438,35.007813 17.175781,35.769531 20.007813,35.769531 L20.015625,35.769531 C28.710938,35.769531 35.789063,28.691406 35.792969,19.992188 C35.796875,15.777344 34.15625,11.8125 31.175781,8.832031 Z"/>
    <path fill="#FFF" d="M15.269531,12.046875 C14.914063,11.253906 14.539063,11.238281 14.199219,11.226563 C13.921875,11.214844 13.605469,11.214844 13.289063,11.214844 C12.976563,11.214844 12.460938,11.332031 12.027344,11.808594 C11.589844,12.28125 10.363281,13.429688 10.363281,15.765625 C10.363281,18.097656 12.066406,20.355469 12.300781,20.671875 C12.539063,20.984375 15.585938,25.929688 20.40625,27.832031 C24.414063,29.410156 25.230469,29.097656 26.097656,29.019531 C26.96875,28.9375 28.90625,27.871094 29.300781,26.761719 C29.695313,25.65625 29.695313,24.707031 29.578125,24.507813 C29.460938,24.308594 29.144531,24.191406 28.667969,23.953125 C28.195313,23.714844 25.863281,22.570313 25.425781,22.410156 C24.992188,22.253906 24.675781,22.175781 24.359375,22.648438 C24.042969,23.121094 23.132813,24.191406 22.855469,24.507813 C22.578125,24.824219 22.304688,24.863281 21.828125,24.628906 C21.355469,24.390625 19.828125,23.890625 18.015625,22.273438 C16.605469,21.015625 15.652344,19.464844 15.375,18.988281 C15.097656,18.515625 15.34375,18.257813 15.582031,18.019531 C15.796875,17.808594 16.058594,17.464844 16.296875,17.1875 C16.53125,16.910156 16.609375,16.714844 16.769531,16.398438 C16.925781,16.082031 16.847656,15.804688 16.730469,15.566406 C16.613281,15.328125 15.691406,12.984375 15.269531,12.046875 Z"/>
  </g>
</svg>
