<svg width="24" height="24" viewBox="0 0 24 24" fill="none" xmlns="http://www.w3.org/2000/svg">
<path d="M13.3414 3C13.1203 3.62556 13 4.29873 13 5H9.5C5.91015 5 3 7.91015 3 11.5C3 15.0899 5.91015 18 9.5 18H14.6059L14.81 18.0973C15.7629 18.5514 16.6894 19.1352 17.5895 19.8472C17.6663 18.9602 17.7928 18.1193 17.9692 17.3245L18.0504 16.9586L18.3521 16.7362C20.0055 15.5175 21 13.5926 21 11.5C21 11.2211 20.9824 10.9463 20.9483 10.6766C21.628 10.4434 22.2525 10.0915 22.7972 9.64582C22.93 10.2427 23 10.8632 23 11.5C23 14.1014 21.8221 16.5081 19.8485 18.1067C19.7291 18.7112 19.6402 19.3489 19.5821 20.0198C19.5483 20.4097 19.4009 20.7811 19.1581 21.088C18.4728 21.9543 17.215 22.101 16.3487 21.4158C15.6275 20.8453 14.8942 20.3738 14.1485 20H9.5C4.80558 20 1 16.1944 1 11.5C1 6.80558 4.80558 3 9.5 3H13.3414Z" fill="black" fill-opacity="0.2"/>
<path d="M19 9C21.2091 9 23 7.20914 23 5C23 2.79086 21.2091 1 19 1C16.7909 1 15 2.79086 15 5C15 7.20914 16.7909 9 19 9Z" fill="#00B4F0"/>
</svg>
