<svg width="24" height="24" viewBox="0 0 24 24" fill="none" xmlns="http://www.w3.org/2000/svg">
<path d="M15.7581 19.4094C15.9165 19.7376 16.0053 20.1058 16.0053 20.4946C16.0053 21.8754 14.886 22.9946 13.5053 22.9946C12.6469 22.9946 11.8895 22.562 11.4394 21.9029L10.7646 22.2924C8.9186 23.3582 6.4979 22.3321 6.28959 20.3798C6.09057 18.7111 5.03745 16.1676 3.12329 12.8093C1.59162 10.1221 2.36346 6.74845 4.81889 4.97653C4.32184 4.56382 4.00532 3.94119 4.00532 3.24464C4.00532 2.002 5.01268 0.99464 6.25532 0.99464C7.37922 0.99464 8.31065 1.81867 8.4784 2.89552C10.0778 2.24931 11.8375 2.34125 13.3252 3.05674C13.1178 3.66467 13.0053 4.31652 13.0053 4.99464C13.0053 5.05677 13.0063 5.11868 13.0081 5.18036C11.7746 4.32122 10.1064 4.19721 8.71949 4.99796L6.33599 6.37407C4.43031 7.47431 3.77119 9.9072 4.86085 11.8189C6.89675 15.3908 8.03728 18.1454 8.2769 20.1552C8.32481 20.6041 9.11141 20.9375 9.7646 20.5604L19.2909 15.0604C19.9518 14.6788 20.0616 13.8293 19.6739 13.5621C18.8086 12.9147 17.8843 11.9326 16.8923 10.612C17.5495 10.8593 18.2616 10.9946 19.0053 10.9946C19.2615 10.9946 19.5139 10.9786 19.7616 10.9474C20.1436 11.3554 20.5032 11.6855 20.8391 11.937C22.4912 13.0717 22.149 15.7196 20.2909 16.7924L15.7581 19.4094Z" fill="black" fill-opacity="0.2"/>
<path d="M19 9C21.2091 9 23 7.20914 23 5C23 2.79086 21.2091 1 19 1C16.7909 1 15 2.79086 15 5C15 7.20914 16.7909 9 19 9Z" fill="#00B4F0"/>
</svg>
